# xmcd CD database file
#
# Track frame offsets:
#	182
#	15060
#	29547
#	42625
#	53830
#	69537
#	85215
#	98052
#	111010
#	122940
#	137155
#	150740
#	163497
#	177547
#	190512
#	203345
#	217017
#	228752
#	241035
#	257465
#	272097
#	287700
#	304000
#	316577
#	330875
#
# Disc length: 4604 seconds
#
# Revision: 0
# Processed by: cddbd v1.4PL0 Copyright (c) Steve Scherf et al.
# Submitted via: CDex 1.51
#
DISCID=4f11fa19
DTITLE=Fats Waller - Fats Waller - The Complete Fats Waller
DYEAR=1935
DGENRE=Jazz
TTITLE0=01 Night Wind
TTITLE1=02 Because of Once Upon a Time
TTITLE2=03 I Believe In Miracles
TTITLE3=04 You Fit Into the Picture
TTITLE4=05 Louisana Fairy Tale
TTITLE5=06 Louisana Fairy Tale
TTITLE6=07 I Ain't Got Nobody
TTITLE7=08 I Ain't Got Nobody
TTITLE8=09 Whose Honey Are You?
TTITLE9=10 Whose Honey Are You?
TTITLE10=11 Rosetta
TTITLE11=12 Rosetta
TTITLE12=13 Pardon My Love
TTITLE13=14 Whats The Reason
TTITLE14=15 Whats The Reason
TTITLE15=16 Cinders
TTITLE16=17 Oh Susana, Dust off That Old Pianna
TTITLE17=18 Lulus Back In Town
TTITLE18=19 Sweet and Slow
TTITLE19=20 You've Been Taking Lessons In Love
TTITLE20=21 You're The Cutest One
TTITLE21=22 I,m Gonna Sit Right Down and Write Myself A Letter
TTITLE22=23 I Hate To Talk About Myself
TTITLE23=24 Dinah
TTITLE24=25 Take It Easy
EXTD=YEAR: 1935
EXTT0=
EXTT1=
EXTT2=
EXTT3=
EXTT4=
EXTT5=
EXTT6=
EXTT7=
EXTT8=
EXTT9=
EXTT10=
EXTT11=
EXTT12=
EXTT13=
EXTT14=
EXTT15=
EXTT16=
EXTT17=
EXTT18=
EXTT19=
EXTT20=
EXTT21=
EXTT22=
EXTT23=
EXTT24=
PLAYORDER=
